<?xml version="1.0" encoding="UTF-8"?>
<svg id="Layer_2" data-name="Layer 2" xmlns="http://www.w3.org/2000/svg" viewBox="0 0 250.28 192.12">
  <defs>
    <style>
      .cls-1 {
        fill: #dddddddd;
        stroke-width: 0px;
      }
    </style>
  </defs>
  <g id="Layer_1-2" data-name="Layer 1">
    <g>
      <path class="cls-1" d="M37.88,165.37h-.01c-1.02.1-2.06.14-3.1.14-19.17,0-34.77-15.59-34.77-34.77,0-11.56,5.73-22.09,14.79-28.46v-.12c.92,23.16,8.97,45.09,23.09,63.21Z"/>
      <path class="cls-1" d="M250.28,130.74c0,19.18-15.6,34.77-34.77,34.77-1.04,0-2.08-.04-3.1-.14,14.21-18.24,22.26-40.34,23.1-63.66,0,.19-.01.38-.02.57,9.06,6.37,14.79,16.9,14.79,28.46Z"/>
      <path class="cls-1" d="M201.98,0c-9.71,0-17.62,7.9-17.62,17.62h-16c0-9.72-7.9-17.62-17.61-17.62s-17.61,7.9-17.61,17.62h-16c0-9.72-7.9-17.62-17.61-17.62s-17.61,7.9-17.61,17.62h-16c0-9.72-7.9-17.62-17.62-17.62s-17.61,7.9-17.61,17.62v80.06c0,24.89,9.61,48.38,27.05,66.14,17.9,18.25,41.84,28.3,67.4,28.3s49.51-10.05,67.4-28.3c17.45-17.76,27.05-41.25,27.05-66.14V17.62c0-9.72-7.9-17.62-17.61-17.62ZM52.77,101.48l-11.31-11.31c7.24-7.21,17.23-11.68,28.24-11.68s20.6,4.29,27.8,11.26l-11.31,11.31c-4.3-4.07-10.11-6.57-16.49-6.57s-12.59,2.68-16.93,6.99ZM125.14,158.19c-15.38,0-29.28-6.45-39.15-16.78l11.31-11.31c6.97,7.43,16.87,12.09,27.84,12.09s20.87-4.66,27.84-12.09l11.31,11.31c-9.87,10.33-23.77,16.78-39.15,16.78ZM197.51,101.06c-4.3-4.07-10.11-6.57-16.49-6.57s-12.59,2.68-16.93,6.99l-11.31-11.31c7.24-7.21,17.23-11.68,28.24-11.68s20.6,4.29,27.8,11.26l-11.31,11.31Z"/>
    </g>
  </g>
</svg>
