<?xml version="1.0" encoding="utf-8"?>
<svg x="260.44pt" y="1169.63pt" width="559.121pt" height="437.448pt" viewBox="260.44 1169.63 559.121 437.448" xmlns="http://www.w3.org/2000/svg" xmlns:xlink="http://www.w3.org/1999/xlink">
  <defs>
    <title>Path 51 Copy 1</title>
    <g id="1">
      <defs>
        <path id="2" d="M490.096,1405.24 C490.096,1405.24,468.404,1426.9,468.404,1426.9 C507.943,1466.44,572.056,1466.44,611.596,1426.9 C611.596,1426.9,589.938,1405.24,589.938,1405.24 C562.37,1432.81,517.664,1432.81,490.096,1405.24 z M641.159,1310.67 C622.614,1310.67,604.088,1317.73,589.938,1331.88 C589.938,1331.88,611.596,1353.58,611.596,1353.58 C627.923,1337.25,654.393,1337.25,670.721,1353.58 C670.721,1353.58,692.414,1331.88,692.414,1331.88 C678.263,1317.73,659.704,1310.67,641.159,1310.67 z M438.841,1310.67 C420.296,1310.67,401.769,1317.73,387.62,1331.88 C387.62,1331.88,409.279,1353.58,409.279,1353.58 C425.605,1337.25,452.076,1337.25,468.404,1353.58 C468.404,1353.58,490.096,1331.88,490.096,1331.88 C475.946,1317.73,457.387,1310.67,438.841,1310.67 z M385.875,1169.63 C347.279,1169.63,315.967,1200.23,314.638,1238.51 C314.609,1239.34,314.5,1240.16,314.5,1241 C314.5,1241,314.5,1275.36,314.5,1275.36 C314.5,1275.36,314.5,1279.67,314.5,1279.67 C314.5,1279.67,314.5,1316.52,314.5,1316.52 C314.5,1316.52,314.5,1324.32,314.5,1324.32 C282.596,1339.21,260.44,1371.47,260.44,1409 C260.44,1459.21,300.054,1500.07,349.709,1502.31 C349.72,1502.31,349.732,1502.31,349.744,1502.31 C389.743,1565.22,459.889,1607.08,539.983,1607.08 C620.076,1607.08,690.237,1565.22,730.256,1502.31 C730.268,1502.31,730.278,1502.31,730.292,1502.31 C779.96,1500.09,819.56,1459.22,819.56,1409 C819.56,1371.48,797.422,1339.21,765.534,1324.32 C765.534,1324.32,765.534,1316.52,765.534,1316.52 C765.534,1316.52,765.534,1279.67,765.534,1279.67 C765.534,1279.67,765.534,1275.36,765.534,1275.36 C765.534,1275.36,765.534,1241,765.534,1241 C765.534,1240.16,765.458,1239.34,765.43,1238.51 C764.176,1200.64,734.825,1170.51,697.034,1169.73 C696.535,1169.72,696.063,1169.63,695.562,1169.63 C695.562,1169.63,385.909,1169.63,385.909,1169.63 C385.894,1169.63,385.89,1169.63,385.875,1169.63 z M385.875,1246.58 C385.875,1246.58,449.791,1246.58,449.791,1246.58 C449.791,1246.58,630.484,1246.58,630.484,1246.58 C630.484,1246.58,695.562,1246.58,695.562,1246.58 C712.419,1246.58,725.432,1260.11,725.432,1277.85 C725.432,1277.85,725.432,1279.67,725.432,1279.67 C725.432,1279.67,725.432,1316.52,725.432,1316.52 C725.432,1316.52,725.432,1344.74,725.432,1344.74 C725.432,1447.15,642.391,1530.12,539.983,1530.13 C437.575,1530.13,354.602,1447.15,354.602,1344.74 C354.602,1344.74,354.602,1316.52,354.602,1316.52 C354.602,1316.52,354.602,1279.67,354.602,1279.67 C354.602,1279.67,354.602,1277.85,354.602,1277.85 C354.602,1260.56,368.579,1246.58,385.875,1246.58 z"/>
      </defs>
      <use xlink:href="#2" style="fill:#dddddd;fill-opacity:0.5;fill-rule:evenodd;opacity:1;stroke:none;"/>
    </g>
  </defs>
  <use xlink:href="#1"/>
</svg>
