<svg id="Layer_1" data-name="Layer 1" xmlns="http://www.w3.org/2000/svg" xmlns:xlink="http://www.w3.org/1999/xlink" viewBox="10 150 700 700"><defs><style>.cls-1{fill:#fff;}.cls-2{mask:url(#mask);}</style><mask id="mask" x="0" y="0" width="1500" height="1500" maskUnits="userSpaceOnUse"><g transform="translate(45 70) scale(.9)"><g id="mask-2"><rect id="path-1" class="cls-1" x="19.92" y="21.92" width="756.16" height="756.16" rx="153.42"/></g></g></mask></defs><g id="build-tools_typescript" data-name="build-tools/typescript"><g id="container"><g class="cls-2"><g id="logo"><g id="Group"><path id="Shape" d="M-23.92,378.08v400h800v-800h-800Zm644.7-31.87c20.32,5.08,35.81,14.09,50,28.82,7.37,7.88,18.29,22.23,19.18,25.66.25,1-34.54,24.38-55.62,37.46-.76.5-3.81-2.8-7.24-7.88-10.29-15-21.08-21.46-37.59-22.6-24.25-1.65-39.87,11.05-39.74,32.25a29.34,29.34,0,0,0,3.43,15c5.33,11,15.23,17.65,46.34,31.11,57.27,24.63,81.78,40.89,97,64,17,25.78,20.83,66.92,9.27,97.52-12.7,33.27-44.19,55.88-88.51,63.37-13.71,2.41-46.22,2-61-.64-32.13-5.71-62.6-21.58-81.4-42.41-7.36-8.13-21.71-29.33-20.82-30.86.38-.51,3.68-2.54,7.36-4.7s17-9.77,29.72-17.14l23-13.33,4.83,7.11c6.73,10.29,21.46,24.38,30.35,29.08,25.52,13.46,60.57,11.55,77.84-3.94,7.36-6.73,10.41-13.71,10.41-24,0-9.27-1.14-13.33-6-20.32-6.22-8.88-18.92-16.38-55-32-41.27-17.77-59.05-28.82-75.3-46.34-9.4-10.16-18.29-26.42-22-40-3.05-11.31-3.81-39.62-1.4-51.05,8.51-39.88,38.6-67.68,82-75.94C574.18,341.76,606.94,342.78,620.78,346.21ZM433,379.61l.26,32.76H329.1V708.24H255.45V412.37H151.32V380.24c0-17.78.38-32.63.89-33s63.75-.77,140.57-.64l139.81.38Z" transform="translate(45 70) scale(.9)"/></g></g></g></g></g></svg>